<svg width="210mm" height="297mm" version="1.1" viewBox="0 0 210 297" xmlns="http://www.w3.org/2000/svg" xmlns:xlink="http://www.w3.org/1999/xlink">
 <defs>
  <radialGradient id="radialGradient79633" cx="69.757" cy="60.734" r="40.289" gradientTransform="matrix(1.0717 .16163 -.14974 .99529 4.0948 -10.988)" gradientUnits="userSpaceOnUse">
   <stop stop-color="#b8b8b8" offset="0"/>
   <stop stop-color="#b8b8b8" stop-opacity="0" offset="1"/>
  </radialGradient>
  <filter id="filter79673" x="-.0060003" y="-.0059997" width="1.012" height="1.012" color-interpolation-filters="sRGB">
   <feGaussianBlur stdDeviation="0.20611227"/>
  </filter>
 </defs>
 <path transform="matrix(.016907 -.0036555 .003651 .016886 -.56299 .066107)" d="m87.048 87.195c-4.021 2.5673-9.3543-9.0292-14.052-8.1962-4.6974 0.83307-7.4631 23.017-12.122 21.989-4.6586-1.028 2.1681-22.316-1.7425-25.048-3.9106-2.7325-12.786 5.6716-15.353 1.6506-2.5673-4.021 8.5461-8.9199 7.713-13.617-0.83307-4.6974-23.017-7.4631-21.989-12.122 1.028-4.6586 22.316 2.1681 25.048-1.7425 2.7325-3.9106-5.5851-13.825-1.564-16.393 4.021-2.5673 8.8333 9.5854 13.531 8.7523 4.6974-0.83307 7.4631-23.017 12.122-21.989 4.6586 1.028-2.1681 22.316 1.7425 25.048 3.9106 2.7325 14.09-5.5231 16.657-1.5021 2.5673 4.021-9.8503 8.7714-9.0172 13.469 0.83307 4.6974 23.017 7.4631 21.989 12.122-1.028 4.6586-22.316-2.1681-25.048 1.7425-2.7325 3.9106 6.106 13.269 2.085 15.836z" fill="url(#radialGradient79633)" filter="url(#filter79673)"/>
</svg>
